<svg width="87" height="87" viewBox="0 0 87 87" fill="none" xmlns="http://www.w3.org/2000/svg">
<path d="M87 64.8633V81.954C87.0006 83.1777 86.5369 84.356 85.7027 85.2513C84.8685 86.1465 83.7257 86.692 82.505 86.7777C80.3928 86.9227 78.6673 87 77.3333 87C34.6212 87 0 52.3788 0 9.66667C0 8.33267 0.0725 6.60717 0.222333 4.495C0.307992 3.27431 0.853476 2.13155 1.74872 1.29731C2.64396 0.463066 3.82231 -0.000553093 5.046 1.24013e-06H22.1367C22.7362 -0.000605783 23.3145 0.221652 23.7594 0.623599C24.2042 1.02555 24.4837 1.57848 24.5437 2.175C24.6548 3.28667 24.7563 4.17117 24.853 4.843C25.8136 11.5465 27.782 18.0662 30.6917 24.1812C31.1508 25.1478 30.8512 26.303 29.9812 26.9217L19.5508 34.3747C25.9282 49.2345 37.7703 61.0766 52.6302 67.454L60.0735 57.043C60.3777 56.6177 60.8216 56.3126 61.3277 56.181C61.8338 56.0494 62.3701 56.0996 62.843 56.3228C68.9573 59.227 75.4753 61.1906 82.1763 62.147C82.8482 62.2437 83.7327 62.35 84.8347 62.4563C85.4303 62.5174 85.9821 62.7974 86.383 63.2421C86.784 63.6868 87.0056 64.2646 87.0048 64.8633H87Z" fill="#09121F"/>
</svg>
