<svg width="107" height="107" viewBox="0 0 107 107" fill="none" xmlns="http://www.w3.org/2000/svg">
<path d="M52.4756 18.8916C63.1072 18.8515 72.9089 22.2579 80.7139 29.6191C96.3801 44.3949 97.8325 69.3749 83.0508 85.0938C82.6517 85.5182 82.3552 85.732 82.0596 85.8545C81.7597 85.9787 81.3928 86.0374 80.8008 86.0391H41.1201C39.8379 86.0336 39.0315 85.6796 38.5527 85.2422C38.0754 84.8061 37.8521 84.2232 37.8486 83.6104C37.8415 82.3306 38.7651 81.111 40.1094 81.0186C41.5168 80.9217 42.919 80.9625 44.3936 80.9629L79.3604 80.9639H79.6982L79.9219 80.7109C84.2872 75.7776 87.6636 68.5576 87.9951 61.8848L88.0322 61.1436L87.292 61.0986C86.3814 61.0437 85.3118 61.099 84.3564 61.1172C83.3612 61.1361 82.4671 61.1172 81.7588 60.9512V60.9502C81.0204 60.7769 80.4263 60.1159 80.1963 59.2568C79.9672 58.4007 80.1492 57.5354 80.7266 57.0078C81.7276 56.0929 82.6847 56.2883 84.3867 56.292H84.3877L87.2451 56.2959L87.9658 56.2979L87.9961 55.5771C88.0577 54.0845 87.6188 51.8659 87.2842 50.5059C85.7487 44.2656 82.8016 39.2306 78.5508 34.5771L78.5371 34.5615L77.9824 34C72.2049 28.2757 64.9516 24.9797 56.877 24.0752L56.0674 23.9844L56.043 24.7988C56.0217 25.5253 56.0415 26.2664 56.0537 26.9727C56.0661 27.6884 56.0711 28.3755 56.0283 29.0371C55.9889 29.6462 55.6653 30.2374 55.1514 30.6924C54.6357 31.1488 53.9798 31.4211 53.3643 31.4346C52.7729 31.4474 52.1998 31.2259 51.7539 30.6465C51.2904 30.044 50.9126 28.9841 50.9199 27.2432L50.9209 27.2422L50.9248 24.8223L50.9268 23.9375L50.0537 24.0801C49.4907 24.1721 48.9389 24.2434 48.3652 24.3203C47.7963 24.3966 47.2108 24.4786 46.6064 24.5908C33.4551 27.0325 22.7753 37.5508 19.7344 50.498C19.3773 52.0184 19.0123 53.7209 19.0146 55.3828L19.0156 56.1299L19.7627 56.1318C20.1463 56.1329 20.6024 56.1234 21.0801 56.1133C21.5616 56.1031 22.0706 56.0919 22.5742 56.0898C23.6019 56.0857 24.533 56.1202 25.127 56.2461H25.1279C25.8786 56.4056 26.518 57.0894 26.7793 57.998C27.0384 58.8994 26.8654 59.8148 26.2549 60.3779C25.2115 61.3403 24.4757 61.1134 22.6748 61.1006H22.6709L19.7656 61.0977L19.0146 61.0967V61.8467C19.0134 64.8656 20.0349 68.4382 21.46 71.7627C22.8892 75.0968 24.757 78.2591 26.5186 80.4697C26.8241 80.8533 27.2533 81.3322 27.5283 81.666C27.8439 82.049 28.0915 82.3921 28.248 82.7266C28.3992 83.0497 28.4553 83.3445 28.4121 83.6445C28.3682 83.9491 28.2104 84.335 27.8037 84.8193C27.22 85.5145 26.7138 85.8339 26.2979 85.9561C25.8962 86.074 25.4995 86.0321 25.0732 85.8457C24.1536 85.4433 23.2379 84.439 22.2959 83.2734C12.5038 71.1577 10.7937 52.4494 18.79 39.002C26.2253 26.498 38.0788 19.6845 52.4756 18.8916Z" stroke="url(#paint0_linear_176_736)" stroke-width="1.5"/>
<path d="M35.2109 38.7432C35.9905 38.6961 36.4304 38.8316 36.7969 39.0576C37.2284 39.3239 37.5967 39.7278 38.2441 40.3867V40.3877L40.3936 42.5781L40.3965 42.5811C43.0617 45.267 45.9572 48.1366 48.4961 50.8887L48.8516 51.2734L49.3359 51.0723C52.17 49.8923 54.6779 49.9152 56.708 50.6553C58.746 51.3983 60.3555 52.8834 61.3525 54.7158C63.3459 58.3797 62.8639 63.356 58.4883 66.4229C51.6358 71.202 42.1639 64.3955 45.4238 55.4854L45.5801 55.0576L45.2725 54.7217C43.3609 52.6327 41.3473 50.6065 39.3418 48.5957C37.3326 46.5812 35.3321 44.583 33.4287 42.5332C32.9462 42.0134 32.85 41.1936 33.1963 40.3789C33.5342 39.5841 34.2529 38.9178 35.2109 38.7432ZM57.3242 58.6084C57.1299 56.498 55.2678 54.9407 53.1562 55.1221C51.027 55.3053 49.4538 57.1862 49.6494 59.3145C49.8451 61.4427 51.7353 63.0052 53.8623 62.7969C55.9714 62.5902 57.5183 60.7188 57.3242 58.6084Z" stroke="url(#paint1_linear_176_736)" stroke-width="1.5"/>
<defs>
<linearGradient id="paint0_linear_176_736" x1="115.934" y1="-87.2352" x2="-11.2155" y2="-31.9464" gradientUnits="userSpaceOnUse">
<stop stop-color="#19BC8D"/>
<stop offset="1" stop-color="#0B5641"/>
</linearGradient>
<linearGradient id="paint1_linear_176_736" x1="71.5687" y1="-9.25378" x2="20.7867" y2="9.56354" gradientUnits="userSpaceOnUse">
<stop stop-color="#19BC8D"/>
<stop offset="1" stop-color="#0B5641"/>
</linearGradient>
</defs>
</svg>
