<svg width="107" height="107" viewBox="0 0 107 107" fill="none" xmlns="http://www.w3.org/2000/svg">
<path d="M68.2617 11.4771C68.8881 11.5085 69.442 11.5945 69.8672 11.7612C70.286 11.9256 70.5324 12.1479 70.6455 12.4331C70.8054 12.8366 70.7458 13.2431 70.5361 13.7114C70.3128 14.2101 69.9865 14.6511 69.6602 15.1958L69.6572 15.2017L52.9375 43.9458C52.384 44.8911 51.4419 45.0364 50.75 44.7271C50.4008 44.5709 50.1311 44.3046 50 43.979C49.8885 43.7018 49.8631 43.345 50.0205 42.9155L50.0996 42.7261C50.634 41.6649 51.2731 40.6591 51.9014 39.5981C56.4818 31.8636 60.9792 24.0797 65.5068 16.3208L65.5078 16.3218C65.7094 15.9766 65.8952 15.5853 66.0566 15.2544L66.4082 14.5356H51.7109L51.5635 14.7661C51.1974 15.3394 50.7898 16.1286 50.4717 16.686L32.6631 47.6636L32.6611 47.6655C31.4784 49.7489 30.202 51.9231 29.0742 54.0591L28.6865 54.7925H43.126C43.4606 54.7925 44.1487 54.7834 44.9941 54.7749C45.8427 54.7664 46.8561 54.7581 47.8486 54.7583C48.8419 54.7585 49.8102 54.7675 50.5713 54.7935C50.9525 54.8065 51.2766 54.8235 51.5225 54.8452C51.6454 54.8561 51.7432 54.8677 51.8164 54.8794C51.8986 54.8926 51.9203 54.9014 51.9092 54.897C52.3871 55.0893 52.6014 55.3559 52.6992 55.644C52.8064 55.9596 52.7969 56.3705 52.6816 56.8696C52.5676 57.3633 52.3627 57.8902 52.1377 58.4136C51.9217 58.9159 51.6701 59.45 51.5068 59.8745L51.5059 59.8784L43.1865 82.0552L44.0156 82.5776C45.3005 81.2435 46.3348 79.9835 47.5195 78.6343L47.5205 78.6353L52.1621 73.4136L52.1631 73.4126C57.9454 66.8661 63.6642 60.3096 69.5381 53.853L69.541 53.8491C71.8076 51.3135 74.3554 48.0842 76.6885 45.8472L77.5859 44.9868L76.3428 44.9858L63.8506 44.9839H63.8516C63.225 44.9815 62.6973 44.9942 62.1094 44.9302C61.5873 44.8733 61.2593 44.6545 61.0654 44.3931C60.8657 44.1234 60.7777 43.7668 60.8164 43.395C60.8939 42.6509 61.4578 41.9482 62.4355 41.9233C63.551 41.8951 64.6686 41.9109 65.8037 41.9106H78.0645V41.9097C78.8236 41.9099 79.6252 41.8246 80.416 41.9097C81.1895 41.9929 81.7178 42.2255 81.9746 42.7046C82.2342 43.1893 82.2528 43.5359 82.1709 43.8364C82.0805 44.1678 81.8508 44.51 81.4746 44.9487C78.2075 48.7576 74.8227 52.4543 71.4688 56.2036L71.4668 56.2056L41.209 90.3853L41.207 90.3872C40.9422 90.6894 40.6239 91.1016 40.3027 91.4966C39.9719 91.9034 39.6202 92.3148 39.2559 92.6665C38.8882 93.0213 38.5312 93.2908 38.1953 93.437C37.8705 93.5783 37.5897 93.5956 37.3252 93.4897C36.5555 93.1814 36.3126 92.8 36.2461 92.4263C36.1685 91.9896 36.3043 91.4321 36.5811 90.7368C37.2067 89.1652 37.7822 87.5676 38.3516 85.9829C38.9209 84.3982 39.4842 82.8263 40.0898 81.2886C41.6521 77.4929 42.9664 73.5386 44.4297 69.7505L44.4307 69.7485L47.4102 61.9575L47.4111 61.9556C47.8234 60.8669 48.3399 59.6341 48.7246 58.5171L48.9521 57.855H48.251L28.4004 57.8579C28.0352 57.8581 27.4968 57.8864 27.0586 57.8931C26.5795 57.9003 26.106 57.8864 25.6875 57.812C25.2656 57.737 24.9453 57.6087 24.7314 57.4224C24.5374 57.2532 24.392 57.0026 24.3721 56.5796C24.3728 56.5739 24.3739 56.5655 24.376 56.5542C24.3808 56.5281 24.3894 56.4927 24.4023 56.4478C24.4285 56.3571 24.4687 56.241 24.5254 56.1001C24.6387 55.8182 24.8049 55.462 25.0117 55.0503C25.4248 54.2281 25.9861 53.2147 26.5752 52.1851C27.1636 51.1566 27.777 50.1183 28.293 49.2485C28.8062 48.3833 29.2286 47.6752 29.4287 47.3198L29.4277 47.3188L46.8584 16.8726L46.8594 16.8706C47.6859 15.4099 48.8738 13.1012 49.8848 11.7983C49.8902 11.7948 49.9013 11.7885 49.9199 11.7798C49.9684 11.7571 50.0433 11.7313 50.1475 11.7065C50.3563 11.6569 50.6297 11.623 50.9336 11.6021C51.2373 11.5811 51.5506 11.5738 51.833 11.5718L52.5469 11.5728L55.7803 11.5747L64.6797 11.5757C65.1389 11.5756 65.7418 11.5333 66.3545 11.5015C66.9806 11.4689 67.6404 11.4459 68.2617 11.4771Z" stroke="url(#paint0_linear_184_2269)"/>
<defs>
<linearGradient id="paint0_linear_184_2269" x1="98.5567" y1="-116.592" x2="-4.14635" y2="-89.8285" gradientUnits="userSpaceOnUse">
<stop stop-color="#19BC8D"/>
<stop offset="1" stop-color="#0B5641"/>
</linearGradient>
</defs>
</svg>
