<svg width="107" height="107" viewBox="0 0 107 107" fill="none" xmlns="http://www.w3.org/2000/svg">
<path d="M14.7783 27.6963C17.5709 27.6189 20.7153 27.6982 23.5674 27.6982H52.9971V27.6992C54.5393 27.7038 55.2404 27.981 55.8203 28.4492C56.1319 28.7008 56.4229 29.0199 56.793 29.4375C57.1572 29.8485 57.5857 30.3409 58.1494 30.8965V30.8955L65.626 38.3418C66.352 39.0644 67.4839 40.0878 68.5371 41.0811C69.6106 42.0934 70.5973 43.0692 71.0996 43.7432L71.2471 43.9414L71.4941 43.9443C75.934 43.9982 79.567 43.6118 83.542 45.5508C88.5607 47.9986 92.1506 52.8505 92.7598 58.4229V58.4238C92.8246 59.0009 92.8343 59.5943 92.832 60.207C92.8298 60.8109 92.8154 61.4467 92.8389 62.0664C92.8861 63.3149 92.598 64.0501 92.1787 64.502C91.7519 64.9619 91.1119 65.2129 90.2822 65.3281C89.4516 65.4435 88.503 65.4133 87.5156 65.3701C86.55 65.3279 85.5369 65.2721 84.6572 65.3604L84.6533 65.3613L84.5518 65.3721L84.1934 65.4102L84.1162 65.7627C81.976 75.605 69.0246 74.8401 67.4795 65.7852L67.4082 65.3691H43.8047L43.7373 65.79C42.2381 75.2027 28.5952 75.1924 27.1445 65.793L27.0723 65.3242L26.6006 65.3721L26.4668 65.3848C23.1378 65.6914 19.9732 64.8372 17.4355 62.7227C13.3988 59.359 13.0461 54.9536 13.2666 49.8438C13.289 49.3246 13.2531 48.7097 13.2363 48.1445C13.219 47.5588 13.2206 47.0013 13.3027 46.5146C13.385 46.0275 13.5398 45.665 13.7832 45.4229C14.0159 45.1914 14.3902 45.0099 15.0439 45.0039C17.7738 44.9788 20.4606 44.9199 23.1543 44.9961L24.3096 45.0381C24.8358 45.0619 25.2324 45.4267 25.4023 45.9561C25.5746 46.4928 25.4749 47.0953 25.0996 47.4824C24.7592 47.8334 24.2671 47.9904 23.6328 48.042C22.9715 48.0958 22.3293 48.0317 21.6182 48.0312L16.8096 48.0264H16.3096L16.3086 48.5264L16.3057 51.9238V51.9248C16.3051 54.1989 16.2329 55.6446 17.373 57.8721L17.377 57.8799C19.3195 61.5169 22.901 62.6746 26.6689 62.5312L27.0254 62.5176L27.1289 62.1758C28.3889 58.0086 31.8903 56.083 35.3809 56.1348C38.886 56.1869 42.3093 58.2299 43.4131 61.9639L43.5195 62.3213H59.3965C61.9686 62.3213 64.6288 62.3541 67.207 62.3213L67.5801 62.3174L67.6816 61.958C69.7723 54.5569 80.9801 53.6254 83.8008 61.9814L83.916 62.3213H89.7695L89.7783 61.8301C89.8319 58.5962 89.1425 55.5616 87.5928 53.0693C86.0388 50.5703 83.6358 48.6453 80.3193 47.6162C77.5614 46.7606 74.3841 46.9204 71.6582 46.9219L43.6348 46.9238C42.5352 46.9235 41.8157 46.8454 41.3232 46.6924C40.8574 46.5476 40.6076 46.3398 40.4248 46.0518C40.2212 45.7308 40.0833 45.2864 39.9131 44.6123C39.7479 43.9582 39.5591 43.1234 39.2393 42.124L38.3545 39.3223C38.2511 38.9954 38.1438 38.7 38.0264 38.3193C37.9164 37.9628 37.8376 37.6559 37.8203 37.4482C37.7607 36.2365 39.1812 35.4545 40.2461 36.1211C40.2478 36.1223 40.2712 36.1396 40.3145 36.1904C40.3573 36.2408 40.4083 36.3116 40.4668 36.4053C40.5845 36.5938 40.7148 36.8484 40.8535 37.1572C41.1304 37.7738 41.4223 38.5646 41.6973 39.3867C42.2467 41.0297 42.7159 42.7517 42.8613 43.3457L42.9551 43.7266H66.2627L65.6689 42.9277C64.9594 41.974 63.8809 40.8878 62.793 39.8477C61.6878 38.7911 60.582 37.791 59.75 36.958V36.957L55.9219 33.1289C55.1828 32.3894 54.5658 31.6665 53.6592 30.9619L53.5342 30.8633L53.375 30.8564L52.5674 30.8379C51.7213 30.8308 50.7883 30.8534 50.0469 30.8545L18.0801 30.8584H18.0781C16.9522 30.8614 15.7398 30.9029 14.6787 30.8408C13.7423 30.786 13.2114 30.058 13.1924 29.2803C13.183 28.895 13.3029 28.5231 13.5488 28.2412C13.7892 27.9658 14.1797 27.7411 14.7783 27.6963ZM81.1201 63.9229C80.8118 60.9822 78.1807 58.8455 75.2393 59.1475C72.2885 59.4503 70.1438 62.0909 70.4531 65.041C70.7626 67.9909 73.4082 70.1292 76.3574 69.8135C79.2973 69.4988 81.4282 66.8636 81.1201 63.9229ZM40.6787 63.7285C40.2591 60.8335 37.5843 58.8171 34.6855 59.2109C31.7503 59.6099 29.7023 62.3261 30.127 65.2578C30.5517 68.1896 33.2858 70.2123 36.2139 69.7617C39.1053 69.3166 41.0984 66.6241 40.6787 63.7285Z" stroke="url(#paint0_linear_184_2259)"/>
<path d="M26.0559 36.2461C26.5219 36.2363 26.9564 36.2493 27.3323 36.3271C27.7048 36.4044 27.9834 36.5377 28.177 36.7422C28.3658 36.9416 28.5227 37.2608 28.5559 37.8057C28.5868 38.3124 28.4787 38.6095 28.3401 38.7939C28.1986 38.982 27.9764 39.1185 27.6575 39.209C27.3352 39.3004 26.9506 39.3344 26.5334 39.3418C26.097 39.3495 25.7226 39.3289 25.3098 39.3281L20.7971 39.3252H20.7942C20.5028 39.3267 20.1664 39.344 19.844 39.3564C19.5131 39.3692 19.181 39.3771 18.8625 39.3623C18.2011 39.3315 17.7103 39.2062 17.4241 38.9453C16.7522 38.3318 16.7004 37.2951 17.3313 36.71C17.6294 36.4335 18.1028 36.3011 18.7268 36.2617C19.048 36.2415 19.3587 36.2463 19.6672 36.2559L20.5969 36.2803L24.6887 36.2822V36.2812C25.1062 36.2859 25.6206 36.2552 26.0559 36.2461Z" stroke="url(#paint1_linear_184_2259)"/>
<path d="M17.0195 69.9072C18.258 69.9068 19.5354 69.854 20.7012 69.9609C21.3738 70.0226 21.8852 70.6968 21.874 71.4785C21.8686 71.8478 21.7403 72.1981 21.4775 72.4619C21.2185 72.7219 20.787 72.9397 20.0986 72.9707L9.94922 72.9756C8.73486 72.9708 8.10367 72.1753 8.05078 71.4395C8.02422 71.0685 8.14134 70.7082 8.40918 70.4336C8.67456 70.1616 9.12913 69.9327 9.84961 69.9082L17.0195 69.9072Z" stroke="url(#paint2_linear_184_2259)"/>
<path d="M19.6045 78.6084L20.5459 78.6289H25.876L88.9922 78.627C89.7553 78.6265 90.5373 78.5853 91.2139 78.6357C92.5289 78.7737 93.1225 80.2985 92.25 81.208C91.9635 81.5065 91.4871 81.6548 90.8447 81.7031C90.5172 81.7278 90.1956 81.7251 89.876 81.7168L88.9189 81.6943L83.6729 81.6934L20.6191 81.6973H20.6182C19.7618 81.7003 18.8361 81.7428 18.0771 81.6777C16.9228 81.5192 16.4108 80.0447 17.1699 79.1709L17.248 79.0879C17.5297 78.8095 18.0043 78.6683 18.6445 78.6221C18.9689 78.5986 19.2884 78.6008 19.6045 78.6084Z" stroke="url(#paint3_linear_184_2259)"/>
<defs>
<linearGradient id="paint0_linear_184_2259" x1="115.059" y1="-43.7558" x2="8.64727" y2="24.6057" gradientUnits="userSpaceOnUse">
<stop stop-color="#19BC8D"/>
<stop offset="1" stop-color="#0B5641"/>
</linearGradient>
<linearGradient id="paint1_linear_184_2259" x1="32.4738" y1="29.4073" x2="22.0986" y2="41.1315" gradientUnits="userSpaceOnUse">
<stop stop-color="#19BC8D"/>
<stop offset="1" stop-color="#0B5641"/>
</linearGradient>
<linearGradient id="paint2_linear_184_2259" x1="26.3661" y1="63.1258" x2="16.4455" y2="76.3829" gradientUnits="userSpaceOnUse">
<stop stop-color="#19BC8D"/>
<stop offset="1" stop-color="#0B5641"/>
</linearGradient>
<linearGradient id="paint3_linear_184_2259" x1="113.86" y1="71.7812" x2="110.885" y2="92.2089" gradientUnits="userSpaceOnUse">
<stop stop-color="#19BC8D"/>
<stop offset="1" stop-color="#0B5641"/>
</linearGradient>
</defs>
</svg>
