<svg width="65" height="84" viewBox="0 0 65 84" fill="none" xmlns="http://www.w3.org/2000/svg">
<path d="M31.7041 3.2041C42.9197 2.71155 53.6649 9.55588 58.4951 19.6309L58.4971 19.6338C59.7966 22.322 60.809 25.6363 61.2051 28.9824C61.6019 32.3359 61.3717 35.6498 60.2598 38.3799C55.387 50.3433 48.5962 61.6658 40.8945 72.0449C40.4855 72.5962 39.9125 73.4191 39.2705 74.3301C38.6224 75.2497 37.8926 76.2771 37.1484 77.2666C36.4023 78.2587 35.654 79.1976 34.9717 79.9453C34.2995 80.6819 33.772 81.136 33.4277 81.3252C32.7768 81.5225 32.2848 81.4986 31.8838 81.3711C31.4517 81.2337 31.0384 80.9506 30.6104 80.5146C30.178 80.0743 29.7725 79.523 29.3389 78.8965C28.9218 78.2938 28.4647 77.5994 27.9814 76.9902C20.3483 67.3685 8.94333 50.5152 5.1748 38.7021C-0.220446 21.2607 13.926 3.9531 31.7021 3.2041H31.7041ZM49.4072 29.7607C48.7941 20.4389 40.788 13.3646 31.498 13.9561C22.1723 14.5496 15.1072 22.6393 15.7227 31.9971C16.3382 41.3552 24.402 48.4408 33.7246 47.7959C43.0111 47.1534 50.0205 39.0824 49.4072 29.7607Z" stroke="url(#paint0_linear_203_1404)" stroke-width="2"/>
<path d="M31.9868 22.4805C36.6191 22.1308 40.6661 25.6164 41.0239 30.2822C41.3814 34.9487 37.9124 39.0176 33.2808 39.3848C28.6376 39.7529 24.5703 36.2634 24.2114 31.585C23.8529 26.906 27.3416 22.831 31.9868 22.4805Z" stroke="url(#paint1_linear_203_1404)" stroke-width="2"/>
<defs>
<linearGradient id="paint0_linear_203_1404" x1="78.3727" y1="-121.073" x2="-24.6707" y2="-93.0306" gradientUnits="userSpaceOnUse">
<stop stop-color="#19BC8D"/>
<stop offset="1" stop-color="#0B5641"/>
</linearGradient>
<linearGradient id="paint1_linear_203_1404" x1="47.1281" y1="-7.64066" x2="16.1265" y2="3.71277" gradientUnits="userSpaceOnUse">
<stop stop-color="#19BC8D"/>
<stop offset="1" stop-color="#0B5641"/>
</linearGradient>
</defs>
</svg>
