<svg width="93" height="107" viewBox="0 0 93 107" fill="none" xmlns="http://www.w3.org/2000/svg">
<path d="M82.2339 16.3057C82.4742 16.278 82.703 16.3353 82.9468 16.4717C83.1989 16.6128 83.4525 16.8308 83.7261 17.1055C83.8613 17.2412 83.9956 17.3853 84.1353 17.5352C84.2731 17.6832 84.4177 17.8375 84.563 17.9863L84.5649 17.9893L89.8423 23.3193V23.3203C89.9762 23.4564 90.124 23.5991 90.269 23.7402C90.416 23.8832 90.5635 24.0274 90.7065 24.1758C90.9953 24.4754 91.2495 24.7744 91.4263 25.0742C91.6019 25.3723 91.6845 25.6434 91.6724 25.8975C91.6606 26.1428 91.5575 26.434 91.2456 26.7744C90.9585 27.0877 90.7044 27.2019 90.4917 27.2314C90.2714 27.262 90.0287 27.2114 89.7554 27.0771C89.1843 26.7966 88.6567 26.2526 88.1597 25.7871C86.4071 23.9277 84.521 22.1577 82.7485 20.3672L82.4155 20.0312L82.061 20.3438C80.8906 21.3796 79.3163 23.089 78.229 24.1943L71.8384 30.6074L71.7007 30.7461L71.6929 30.9424C71.6137 33.1274 71.6914 35.871 71.6929 38.0684V38.5674H72.1929L79.5522 38.5693C79.9487 38.5693 80.5108 38.5328 81.0386 38.5176C81.5916 38.5017 82.1628 38.5053 82.6812 38.5742C83.2059 38.644 83.6282 38.7747 83.9175 38.9785C84.1828 39.1654 84.3573 39.4264 84.3862 39.8467C84.4187 40.3207 84.3984 40.8642 84.3979 41.3994V41.4004L84.3989 71.5771C84.3989 72.3675 84.4765 73.3059 84.2925 74.084C84.2038 74.4589 84.0647 74.7329 83.8755 74.9092C83.6987 75.0737 83.4281 75.1997 82.9673 75.1875C82.3817 75.1719 82.0289 75.0177 81.8032 74.8213C81.5733 74.6211 81.4183 74.3275 81.3237 73.9326C81.2284 73.5344 81.2028 73.0682 81.2046 72.5625C81.2055 72.3115 81.2136 72.0586 81.2212 71.8037C81.2287 71.5515 81.2357 71.296 81.2358 71.0518L81.2388 64.7822V41.6533H71.6929V42.1533L71.6938 79.0967V79.0977C71.6953 80.6634 71.7643 82.3931 71.6196 83.8574C71.4265 85.8116 70.5611 86.9691 69.3716 87.6602C68.1491 88.3703 66.5334 88.6156 64.8198 88.6074H23.9897L22.3784 88.6113C21.8368 88.609 21.3022 88.5974 20.8091 88.5605C19.6179 88.4716 18.3999 87.8689 17.4331 86.9619C16.4661 86.0547 15.7929 84.8832 15.6401 83.708C15.4996 82.6264 15.5308 81.2873 15.5308 80.1143L15.5317 25.9883C15.5313 23.5094 15.5698 21.2792 16.3042 19.5645C16.6641 18.7242 17.189 18.0175 17.9604 17.4707C18.7317 16.9241 19.7771 16.5178 21.2085 16.3232C21.8541 16.3013 22.5633 16.3018 23.2788 16.3076L25.4155 16.3252H58.6743C58.8586 16.4803 59.1227 16.7254 59.4028 16.9971L60.2876 17.876L69.9087 27.5352L70.2505 27.8779L70.604 27.5469C71.6542 26.5665 72.9935 25.1459 73.9917 24.1357L73.9907 24.1348L78.4224 19.6973L78.4253 19.6943C78.9041 19.207 79.3827 18.6666 79.8442 18.1709C80.3145 17.6659 80.7823 17.1892 81.2769 16.7832C81.674 16.4572 81.9881 16.334 82.2339 16.3057ZM45.8306 49.541C45.1289 48.9039 44.2569 48.4676 43.0601 48.5723L43.021 48.5752L42.9829 48.585C42.078 48.8093 41.3363 49.453 40.7339 50.1289C40.1348 50.8011 39.5934 51.6037 39.1636 52.1689C37.6932 54.1027 35.9359 56.248 34.7388 58.5703C33.5335 60.9087 32.8613 63.4869 33.606 66.3008L33.6079 66.3047C34.8709 70.9077 39.5598 74.2518 44.3423 73.7871C47.7327 73.7961 50.6194 71.8462 52.3062 69.1406C53.9979 66.4269 54.5166 62.9024 53.1089 59.7246C51.9276 57.0582 49.3094 53.8388 47.5757 51.6426C47.0532 50.9807 46.494 50.1435 45.8306 49.541ZM28.019 22.0215C26.751 22.0203 24.6713 21.9494 23.4214 22.0215L23.3755 22.0244L23.3306 22.0352C22.6824 22.1947 22.1972 22.4992 21.856 22.9238C21.5207 23.3412 21.3544 23.8379 21.2729 24.335C21.1919 24.8299 21.1898 25.3557 21.2046 25.8535C21.22 26.3722 21.2521 26.8325 21.2515 27.2881L21.2456 30.7256V30.7266C21.2438 32.0115 21.3378 32.9698 21.5815 33.668C21.8376 34.401 22.2668 34.8659 22.896 35.1084C23.4743 35.3312 24.182 35.3475 24.9517 35.3252C25.7572 35.3019 26.6532 35.2352 27.7651 35.2354H55.9858L56.0571 35.2139C56.7349 35.0066 57.2252 34.6481 57.5571 34.1709C57.8822 33.7034 58.0297 33.1583 58.0942 32.6152C58.1586 32.0736 58.1444 31.4982 58.1196 30.9531C58.0942 30.394 58.0583 29.8742 58.0679 29.3828L58.0688 29.3711L58.0679 29.3604C58.057 28.9123 58.1042 28.2824 58.144 27.5322C58.1829 26.8007 58.2132 25.9793 58.1587 25.21C58.1049 24.4512 57.9651 23.6819 57.6235 23.0879C57.2609 22.4573 56.6709 22.0329 55.8159 22.0273H55.813L28.019 22.0215Z" stroke="url(#paint0_linear_184_2275)"/>
<path d="M43.6601 69.5359C39.1698 69.6299 36.2048 65.0404 38.3512 61.0716C39.5333 58.8859 41.8292 55.2995 43.6601 53.6416C43.8588 53.8142 44.9639 55.3434 45.2197 55.6796C46.9372 57.9366 49.5373 61.0426 49.5348 63.8494C49.5321 67.0327 46.7831 69.5365 43.6601 69.5359Z" fill="black"/>
<path d="M43.6601 69.5359C39.1698 69.6299 36.2048 65.0404 38.3512 61.0716C39.5333 58.8859 41.8292 55.2995 43.6601 53.6416C43.8588 53.8142 44.9639 55.3434 45.2197 55.6796C46.9372 57.9366 49.5373 61.0426 49.5348 63.8494C49.5321 67.0327 46.7831 69.5365 43.6601 69.5359Z" fill="url(#paint1_linear_184_2275)"/>
<defs>
<linearGradient id="paint0_linear_184_2275" x1="112.943" y1="-96.7395" x2="-12.0977" y2="-48.3191" gradientUnits="userSpaceOnUse">
<stop stop-color="#19BC8D"/>
<stop offset="1" stop-color="#0B5641"/>
</linearGradient>
<linearGradient id="paint1_linear_184_2275" x1="36.0546" y1="77.2013" x2="47.8091" y2="76.2815" gradientUnits="userSpaceOnUse">
<stop stop-color="#19BC8D"/>
<stop offset="1" stop-color="#0B5641"/>
</linearGradient>
</defs>
</svg>
