<svg width="54" height="54" viewBox="0 0 54 54" fill="none" xmlns="http://www.w3.org/2000/svg">
<path d="M36.8314 34.4648L44 41.6317L41.6317 44L34.4648 36.8314C31.7981 38.9692 28.4812 40.1319 25.0635 40.127C16.7484 40.127 10 33.3786 10 25.0635C10 16.7484 16.7484 10 25.0635 10C33.3786 10 40.127 16.7484 40.127 25.0635C40.1319 28.4812 38.9692 31.7981 36.8314 34.4648ZM33.474 33.2229C35.5981 31.0385 36.7844 28.1104 36.7796 25.0635C36.7796 18.5895 31.5358 13.3474 25.0635 13.3474C18.5895 13.3474 13.3474 18.5895 13.3474 25.0635C13.3474 31.5358 18.5895 36.7796 25.0635 36.7796C28.1104 36.7844 31.0385 35.5981 33.2229 33.474L33.474 33.2229Z" fill="white" fill-opacity="0.8"/>
</svg>
