<svg width="49" height="49" viewBox="0 0 49 49" fill="none" xmlns="http://www.w3.org/2000/svg">
<path d="M24.8367 30.1986C24.4462 29.8081 23.813 29.8081 23.4225 30.1986L6.06796 47.5531C5.67743 47.9437 5.04427 47.9437 4.65374 47.5531L0.706539 43.6059C0.316013 43.2154 0.316013 42.5823 0.706539 42.1917L18.0611 24.8372C18.4516 24.4467 18.4516 23.8135 18.0611 23.423L0.706539 6.06844C0.316013 5.67792 0.316013 5.04475 0.706539 4.65423L4.65374 0.707027C5.04427 0.316502 5.67743 0.316502 6.06796 0.707027L23.4225 18.0616C23.813 18.4521 24.4462 18.4521 24.8367 18.0616L42.1912 0.707027C42.5818 0.316502 43.2149 0.316502 43.6055 0.707027L47.5527 4.65423C47.9432 5.04475 47.9432 5.67792 47.5527 6.06844L30.1981 23.423C29.8076 23.8135 29.8076 24.4467 30.1981 24.8372L47.5527 42.1917C47.9432 42.5823 47.9432 43.2154 47.5527 43.6059L43.6055 47.5531C43.2149 47.9437 42.5818 47.9437 42.1912 47.5531L24.8367 30.1986Z" fill="white"/>
</svg>
