<svg width="84" height="84" viewBox="0 0 84 84" fill="none" xmlns="http://www.w3.org/2000/svg">
<path d="M42 0.75C64.7824 0.75 83.25 19.2176 83.25 42C83.25 64.7824 64.7824 83.25 42 83.25C19.2176 83.25 0.75 64.7824 0.75 42C0.75 19.2176 19.2176 0.75 42 0.75ZM42 7.65039C23.0302 7.65039 7.65039 23.0302 7.65039 42C7.65039 60.9698 23.0302 76.3496 42 76.3496C60.9698 76.3496 76.3496 60.9698 76.3496 42C76.3496 23.0302 60.9698 7.65039 42 7.65039ZM58.5293 23.0293C59.227 22.5409 60.1731 22.6244 60.7715 23.2256L60.7725 23.2275C61.3692 23.8242 61.4463 24.767 60.958 25.4521C56.3807 31.8478 52.8335 36.7567 50.3174 40.1807C49.0591 41.893 48.0602 43.2312 47.3203 44.1973C46.7546 44.9359 46.3574 45.4338 46.1152 45.7158L45.9248 45.9268C43.8241 48.0223 40.4604 48.0874 38.2812 46.1221L38.0732 45.9258C35.9099 43.7578 35.9093 40.2424 38.0723 38.0742L38.0732 38.0752C38.8102 37.3403 40.8635 35.7235 44.3047 33.1904C46.8688 31.303 50.1764 28.9261 54.2285 26.0596L58.5293 23.0293ZM18.9004 38.5498C20.8044 38.55 22.3496 40.0959 22.3496 42C22.3496 43.9041 20.8044 45.45 18.9004 45.4502C16.9962 45.4502 15.4502 43.9042 15.4502 42C15.4502 40.0958 16.9962 38.5498 18.9004 38.5498ZM65.0996 38.5498C67.0038 38.5498 68.5498 40.0958 68.5498 42C68.5498 43.9042 67.0038 45.4502 65.0996 45.4502C63.1956 45.45 61.6504 43.9041 61.6504 42C61.6504 40.0959 63.1956 38.55 65.0996 38.5498ZM23.2275 23.2275C24.5302 21.9249 26.62 21.883 27.9766 23.1055L28.1055 23.2275C29.4498 24.5722 29.4506 26.7557 28.1045 28.1055C26.7594 29.45 24.5725 29.4501 23.2275 28.1055C21.8824 26.7604 21.8824 24.5726 23.2275 23.2275ZM42 15.4502C43.9042 15.4502 45.4502 16.9962 45.4502 18.9004C45.45 20.8044 43.9041 22.3496 42 22.3496C40.0959 22.3496 38.55 20.8044 38.5498 18.9004C38.5498 16.9962 40.0958 15.4502 42 15.4502Z" stroke="url(#paint0_linear_203_1392)" stroke-width="1.5"/>
<defs>
<linearGradient id="paint0_linear_203_1392" x1="106.615" y1="-128.943" x2="-31.2777" y2="-78.1979" gradientUnits="userSpaceOnUse">
<stop stop-color="#19BC8D"/>
<stop offset="1" stop-color="#0B5641"/>
</linearGradient>
</defs>
</svg>
