<svg width="49" height="49" viewBox="0 0 49 49" fill="none" xmlns="http://www.w3.org/2000/svg">
<path d="M9.36109 11.9142L9.3599 3.54497C9.3599 2.25215 9.2874 1.15134 10.9698 1.00586L35.0285 1.00511C36.0832 1.00433 37.1504 0.977754 38.2014 1.05393C40.1208 1.19303 39.6428 4.26743 39.6421 5.58646L39.6433 11.9142L43.351 11.9136C46.7453 11.9112 48.9883 12.2007 48.9997 16.1056L49 32.0486C49.0001 36.2384 47.7981 36.9017 43.7943 36.9028L39.6433 36.9018L39.6449 45.2907C39.6449 46.62 39.6968 47.8233 37.9748 47.9797C37.4869 48.0238 36.7849 47.9824 36.2759 47.9817L12.0645 47.9824C9.83805 47.9948 9.35819 48.0412 9.3599 45.4538L9.36109 36.9018L5.48269 36.9033C2.84579 36.9037 0.0309402 36.7278 0 33.117L0.000988675 17.1785C-0.00409991 12.481 1.18849 11.9142 5.70535 11.9129L9.36109 11.9142ZM13.7087 5.13112C13.5919 5.13705 13.4902 5.12624 13.3979 5.19013C13.4939 6.84066 13.4153 8.52755 13.4409 10.181C13.4444 10.4036 13.4205 11.8008 13.4414 11.9142H35.2721C35.7432 11.903 35.5206 9.94323 35.5206 9.44205L35.5196 5.13112H13.7087ZM39.8786 17.0078C38.9072 17.2202 38.2926 18.1797 38.5064 19.1501C38.7203 20.1203 39.6816 20.7332 40.6523 20.5182C41.6213 20.3036 42.2332 19.3455 42.0198 18.377C41.8064 17.4085 40.8482 16.7959 39.8786 17.0078ZM13.4414 30.1148C13.413 30.5772 13.4375 31.2569 13.4395 31.7313L13.4414 43.8372H35.5196C35.5471 43.7741 35.5231 31.368 35.5196 30.1148H13.4414Z" fill="#19BC8D"/>
<path d="M20.8708 34.9967L19.004 34.9984C16.0175 34.9998 17.0262 34.0721 17.8681 34.0288C18.345 34.0043 18.7808 34.0059 19.2625 34.0058L28.162 34.006L30.0095 34.0037C30.4223 34.0035 31.3764 33.9693 31.6899 34.1128C32.2898 34.3875 31.9671 34.9377 31.1699 34.9829C30.7588 35.0062 30.3755 34.9993 29.9582 34.9983L20.8708 34.9967Z" fill="#19BC8D"/>
<path d="M19.1167 38.9754C18.5848 38.9705 17.6726 39.1204 17.2545 38.688C16.7235 38.139 17.084 37.142 17.7776 37.0713C18.263 37.0218 18.7285 37.0335 19.2194 37.0333L29.8363 37.0338C30.4441 37.0428 31.7308 36.7738 31.9387 37.6189C32.3494 39.2894 30.5903 38.9769 29.8041 38.9767L19.1167 38.9754Z" fill="#19BC8D"/>
</svg>
