<svg width="82" height="84" viewBox="0 0 82 84" fill="none" xmlns="http://www.w3.org/2000/svg">
<path d="M12.9424 1.00781C13.7992 0.946854 14.4718 1.22166 15.1357 1.7168C15.8563 2.25421 16.4545 2.95194 17.2637 3.76953V3.77051L27.0195 13.7607C27.9712 14.7351 29.2269 15.8475 30.0732 17.1211C30.9014 18.3674 31.1154 19.4289 30.4727 20.4297C30.1174 20.9826 29.5385 21.6198 28.8633 22.293C28.5312 22.624 28.1884 22.9514 27.8525 23.2725C27.5205 23.5899 27.1915 23.9045 26.9004 24.1973L26.8955 24.2021L22.9297 28.2451C22.6998 28.4781 22.4687 28.6773 22.166 28.959C21.8871 29.2186 21.5737 29.5265 21.3057 29.8867C20.7859 30.5851 20.6513 31.5393 20.6426 32.4004C20.6335 33.303 20.7642 34.3114 20.9512 35.2842C21.2787 36.9888 21.8028 38.698 22.1807 39.7549L22.332 40.166C25.5969 48.6674 33.7262 57.5597 42.3145 60.8906C43.3369 61.2872 45.2288 61.9181 47.125 62.3438C48.0728 62.5565 49.0491 62.724 49.9316 62.7793C50.781 62.8324 51.682 62.7929 52.3936 62.4785C52.6497 62.3653 52.9167 62.1561 53.124 61.9834C53.3603 61.7866 53.6329 61.5381 53.9229 61.2617C54.5044 60.7074 55.1945 60.0046 55.874 59.2949C57.23 57.8787 58.5929 56.384 59.0029 55.9453C59.4358 55.4822 59.9411 54.8683 60.3408 54.4199C60.7816 53.9255 61.1957 53.5093 61.6172 53.21C62.357 52.6844 62.981 52.5295 63.5156 52.5498C64.0661 52.5708 64.6293 52.782 65.2266 53.1699C66.1708 53.7832 67.0083 54.6896 67.8652 55.6211L68.7334 56.5508L78.4697 66.667L78.4727 66.6699C79.8677 68.1042 80.697 69.2232 80.9316 70.3379C81.148 71.3664 80.8944 72.6164 79.5 74.417L79.4082 74.5322C75.5 79.3696 68.5633 82.3132 62.415 82.8955C49.729 84.023 35.0056 75.8819 23.0586 64.127C11.1264 52.3865 2.26931 37.3376 1.10547 25.1113C0.470118 18.4368 2.75002 11.0525 6.96582 5.96582L6.96484 5.96484C7.90347 4.83734 8.78114 3.66273 9.80762 2.68945C10.8153 1.73396 11.8301 1.11454 12.9424 1.00781Z" stroke="url(#paint0_linear_203_1398)" stroke-width="2"/>
<defs>
<linearGradient id="paint0_linear_203_1398" x1="104.077" y1="-128.943" x2="-31.2927" y2="-80.3127" gradientUnits="userSpaceOnUse">
<stop stop-color="#19BC8D"/>
<stop offset="1" stop-color="#0B5641"/>
</linearGradient>
</defs>
</svg>
